<?xml version="1.0" encoding="UTF-8"?>
<svg width="1200pt" height="1200pt" version="1.1" viewBox="0 0 1200 1200" xmlns="http://www.w3.org/2000/svg">
 <g>
  <path d="m881.32 503.27h-562.65c-7.6641 0.023437-13.871 6.2305-13.891 13.891v111.49l45.152 45.152-0.003906 177.55c-17.645 17.645-27.508 27.508-45.152 45.152v106.9h0.003906c-0.003906 3.6836 1.4609 7.2188 4.0664 9.8242 2.6055 2.6055 6.1406 4.0703 9.8242 4.0664h109.2l45.152-45.152 253.95 0.003906 45.152 45.152 109.2-0.003907c3.6836 0.003907 7.2188-1.4609 9.8242-4.0664 2.6055-2.6055 4.0703-6.1406 4.0664-9.8242v-106.9l-45.148-45.152v-177.55l45.152-45.152v-111.49l-0.003906 0.003906c-0.019532-7.6641-6.2266-13.871-13.891-13.895zm-218.11 362.73-0.48438 0.48438v0.003906c-4.2383 4.1328-9.75 6.7109-15.641 7.3164-5.8906 0.60547-11.809-0.80078-16.801-3.9844-9.1602-5.457-19.625-8.3359-30.285-8.3359s-21.125 2.8789-30.285 8.3359c-5.5977 3.3047-12.203 4.4766-18.598 3.2969-6.3945-1.1758-12.148-4.625-16.203-9.7109-4.5312-5.7305-6.418-13.117-5.1875-20.32 1.2305-7.2031 5.4648-13.543 11.648-17.441 17.594-10.988 37.918-16.812 58.66-16.812 20.742 0 41.066 5.8242 58.66 16.812 6.6758 4.2188 11.07 11.246 11.949 19.094 0.875 7.8477-1.8594 15.668-7.4336 21.262zm57.793-78.633c-4.543 4.5234-10.582 7.2266-16.984 7.5977-6.3984 0.37109-12.711-1.6133-17.746-5.582-0.90234-0.69531-1.875-1.457-2.8477-2.2227-24.121-17.898-53.355-27.559-83.391-27.559s-59.27 9.6602-83.391 27.559c-0.97266 0.76562-1.9453 1.457-2.918 2.2227-5.4766 4.3008-12.445 6.2461-19.359 5.4062-6.9141-0.83984-13.211-4.3945-17.504-9.8828-4.2891-5.4883-6.2188-12.461-5.3633-19.375s4.4297-13.203 9.9258-17.477c33.719-26.785 75.512-41.367 118.57-41.367s84.855 14.582 118.57 41.367c5.9805 4.6562 9.6523 11.672 10.07 19.238 0.40234 7.4727-2.375 14.762-7.6406 20.074zm60.434-81.273v0.003906c-4.9336 4.8828-11.605 7.6055-18.547 7.5703-6.2578 0-12.309-2.2148-17.09-6.25l-1.7383-1.457 0.003906-0.003907c-40.344-33.949-91.375-52.566-144.1-52.566-52.727 0-103.76 18.617-144.1 52.566l-1.5977 1.3906c-5.2031 4.4727-11.953 6.7344-18.805 6.3008-6.8516-0.4375-13.258-3.5312-17.855-8.6289-4.6016-5.0977-7.0234-11.789-6.7539-18.648 0.21094-7.1836 3.4414-13.941 8.8906-18.617 50.32-42.781 114.21-66.27 180.26-66.27s129.94 23.488 180.26 66.27c5.4492 4.6758 8.6797 11.434 8.8906 18.617 0.28516 7.3594-2.5078 14.508-7.7109 19.727z"/>
  <path d="m464.55 323.56c0-48.395 25.816-93.109 67.727-117.3 41.91-24.195 93.543-24.195 135.45 0 41.91 24.195 67.727 68.91 67.727 117.3v120.31h76.41l-0.003906-120.31c0-56.191-22.32-110.08-62.051-149.81-39.73-39.73-93.621-62.055-149.81-62.055s-110.08 22.324-149.81 62.055c-39.73 39.73-62.051 93.617-62.051 149.81v120.31h76.41z"/>
  <path d="m154.05 911.93-48.902 48.902c-7.1836-2.6562-14.781-4.0195-22.438-4.0312-18.852-0.054688-36.828 7.957-49.395 22.012-12.562 14.059-18.512 32.82-16.348 51.547 2.1641 18.73 12.238 35.637 27.676 46.457 15.441 10.82 34.773 14.52 53.113 10.16 18.344-4.3555 33.949-16.352 42.875-32.957 8.9219-16.609 10.316-36.238 3.832-53.941l40.707-40.703h64.043v-55.574h-75.508c-7.375-0.015626-14.449 2.9102-19.656 8.1289z"/>
  <path d="m102.79 694.59c-15.781-0.023438-31.043 5.6367-42.996 15.941-11.953 10.305-19.797 24.57-22.102 40.18-2.3008 15.613 1.0898 31.535 9.5625 44.852 8.4688 13.316 21.445 23.141 36.562 27.676s31.359 3.4805 45.762-2.9727c14.402-6.457 26-17.879 32.672-32.18h132.12v-55.57h-132.12c-5.2617-11.336-13.652-20.93-24.191-27.652-10.535-6.7188-22.773-10.285-35.27-10.273z"/>
  <path d="m82.711 563.79c7.6562-0.007812 15.254-1.3711 22.438-4.0273l48.902 48.902c5.207 5.2188 12.281 8.1406 19.656 8.125h75.508v-55.57h-64.047l-40.707-40.703h0.003906c6.3984-17.629 4.9648-37.148-3.9453-53.648-8.9102-16.5-24.445-28.41-42.691-32.727-18.25-4.3125-37.473-0.62891-52.832 10.137-15.355 10.762-25.383 27.57-27.555 46.199-2.1719 18.625 3.7188 37.293 16.188 51.297 12.469 14.008 30.328 22.02 49.082 22.016z"/>
  <path d="m1045.9 608.66 48.902-48.902c7.1836 2.6562 14.781 4.0195 22.438 4.0273 18.852 0.058594 36.828-7.9531 49.391-22.012 12.566-14.055 18.516-32.816 16.348-51.543-2.1641-18.727-12.238-35.637-27.676-46.457-15.438-10.816-34.77-14.516-53.113-10.16-18.34 4.3594-33.945 16.352-42.867 32.961-8.9258 16.605-10.32 36.234-3.8359 53.938l-40.703 40.703h-64.043v55.57h75.574c7.3477 0.003906 14.398-2.9219 19.586-8.125z"/>
  <path d="m1097.2 826.01c15.781 0.019532 31.043-5.6367 42.996-15.941 11.953-10.309 19.797-24.57 22.102-40.184 2.3008-15.613-1.0898-31.531-9.5625-44.852-8.4688-13.316-21.445-23.141-36.562-27.676-15.117-4.5352-31.359-3.4766-45.762 2.9766-14.402 6.4531-26 17.879-32.672 32.18h-132.12v55.57h132.12c5.2734 11.324 13.668 20.914 24.203 27.633 10.531 6.7148 22.766 10.289 35.258 10.293z"/>
  <path d="m1117.3 956.8c-7.6562 0.011718-15.254 1.375-22.438 4.0312l-48.902-48.902c-5.1875-5.2031-12.238-8.1289-19.586-8.1289h-75.574v55.57h64.043l40.707 40.703-0.003906 0.003906c-6.3984 17.625-4.9648 37.148 3.9453 53.648 8.9102 16.5 24.445 28.406 42.691 32.723 18.25 4.3164 37.473 0.62891 52.832-10.133 15.355-10.762 25.383-27.574 27.555-46.199s-3.7188-37.293-16.188-51.301c-12.469-14.004-30.328-22.016-49.082-22.012z"/>
 </g>
</svg>
